<svg width="519" height="362" viewBox="0 0 519 362" fill="none" xmlns="http://www.w3.org/2000/svg">
<path d="M0.697266 17.0253C0.697266 7.62247 8.94225 0 19.1129 0H499.859C510.03 0 518.275 7.62248 518.275 17.0253V344.09C518.275 353.493 510.03 361.115 499.859 361.115H19.1129C8.94224 361.115 0.697266 353.493 0.697266 344.09V17.0253Z" fill="url(#paint0_linear_5865_837)"/>
<path fill-rule="evenodd" clip-rule="evenodd" d="M499.591 1.79213H18.8454C9.74526 1.79213 2.36818 8.61224 2.36818 17.0253V344.09C2.36818 352.503 9.74526 359.323 18.8454 359.323H499.591C508.691 359.323 516.068 352.503 516.068 344.09V17.0253C516.068 8.61225 508.691 1.79213 499.591 1.79213ZM18.8454 0C8.67466 0 0.429688 7.62247 0.429688 17.0253V344.09C0.429688 353.493 8.67466 361.115 18.8454 361.115H499.591C509.762 361.115 518.007 353.493 518.007 344.09V17.0253C518.007 7.62248 509.762 0 499.591 0H18.8454Z" fill="url(#paint1_linear_5865_837)"/>
<path d="M12.0596 33.6028C12.0596 23.4576 20.9555 15.2334 31.9291 15.2334H478.751C489.725 15.2334 498.621 23.4576 498.621 33.6028C498.621 43.7479 489.725 51.9722 478.751 51.9722H31.9291C20.9555 51.9722 12.0596 43.7479 12.0596 33.6028Z" fill="url(#paint2_linear_5865_837)"/>
<path fill-rule="evenodd" clip-rule="evenodd" d="M484.946 72.7973H298.494C292.364 72.7973 287.395 76.8207 287.395 81.7838V193.216C287.395 198.179 292.364 202.203 298.494 202.203H484.946C491.076 202.203 496.044 198.179 496.044 193.216V81.7838C496.044 76.8207 491.076 72.7973 484.946 72.7973ZM298.494 71C291.138 71 285.176 75.8281 285.176 81.7838V193.216C285.176 199.172 291.138 204 298.494 204H484.946C492.301 204 498.264 199.172 498.264 193.216V81.7838C498.264 75.8281 492.301 71 484.946 71H298.494Z" fill="url(#paint3_linear_5865_837)"/>
<path d="M302.405 92.5061C302.405 90.5266 304.141 88.9219 306.282 88.9219H450.161C452.303 88.9219 454.038 90.5266 454.038 92.5061C454.038 94.4857 452.303 96.0904 450.161 96.0904H306.282C304.141 96.0904 302.405 94.4857 302.405 92.5061Z" fill="url(#paint4_linear_5865_837)"/>
<path d="M302.405 110.426C302.405 108.447 304.141 106.842 306.282 106.842H352.806C354.947 106.842 356.683 108.447 356.683 110.426C356.683 112.406 354.947 114.01 352.806 114.01H306.282C304.141 114.01 302.405 112.406 302.405 110.426Z" fill="url(#paint5_linear_5865_837)"/>
<path d="M363.571 110.426C363.571 108.447 365.307 106.842 367.448 106.842H385.541C387.682 106.842 389.418 108.447 389.418 110.426C389.418 112.406 387.682 114.01 385.541 114.01H367.448C365.307 114.01 363.571 112.406 363.571 110.426Z" fill="url(#paint6_linear_5865_837)"/>
<path d="M302.405 182.112C302.405 180.132 304.141 178.527 306.282 178.527H352.806C354.947 178.527 356.683 180.132 356.683 182.112C356.683 184.091 354.947 185.696 352.806 185.696H306.282C304.141 185.696 302.405 184.091 302.405 182.112Z" fill="url(#paint7_linear_5865_837)"/>
<path d="M363.571 182.112C363.571 180.132 365.307 178.527 367.448 178.527H385.541C387.682 178.527 389.418 180.132 389.418 182.112C389.418 184.091 387.682 185.696 385.541 185.696H367.448C365.307 185.696 363.571 184.091 363.571 182.112Z" fill="url(#paint8_linear_5865_837)"/>
<path d="M333.422 146.27C333.422 144.29 335.158 142.686 337.299 142.686H350.222C352.363 142.686 354.099 144.29 354.099 146.27C354.099 148.249 352.363 149.854 350.222 149.854H337.299C335.158 149.854 333.422 148.249 333.422 146.27Z" fill="url(#paint9_linear_5865_837)"/>
<path d="M361.854 146.27C361.854 144.29 363.59 142.686 365.731 142.686H420.871C423.012 142.686 424.748 144.29 424.748 146.27C424.748 148.249 423.012 149.854 420.871 149.854H365.731C363.59 149.854 361.854 148.249 361.854 146.27Z" fill="url(#paint10_linear_5865_837)"/>
<path d="M302.405 146.27C302.405 144.29 304.141 142.686 306.282 142.686H324.375C326.516 142.686 328.252 144.29 328.252 146.27C328.252 148.249 326.516 149.854 324.375 149.854H306.282C304.141 149.854 302.405 148.249 302.405 146.27Z" fill="url(#paint11_linear_5865_837)"/>
<path d="M302.405 128.348C302.405 126.368 304.141 124.764 306.282 124.764H369.176C371.317 124.764 373.053 126.368 373.053 128.348C373.053 130.327 371.317 131.932 369.176 131.932H306.282C304.141 131.932 302.405 130.327 302.405 128.348Z" fill="url(#paint12_linear_5865_837)"/>
<path d="M379.084 128.348C379.084 126.368 380.82 124.764 382.961 124.764H412.254C414.395 124.764 416.131 126.368 416.131 128.348C416.131 130.327 414.395 131.932 412.254 131.932H382.961C380.82 131.932 379.084 130.327 379.084 128.348Z" fill="url(#paint13_linear_5865_837)"/>
<path d="M302.405 164.192C302.405 162.212 304.141 160.607 306.282 160.607H369.176C371.317 160.607 373.053 162.212 373.053 164.192C373.053 166.171 371.317 167.776 369.176 167.776H306.282C304.141 167.776 302.405 166.171 302.405 164.192Z" fill="url(#paint14_linear_5865_837)"/>
<path d="M47.5791 33.8045C47.5791 37.1979 44.6027 39.9488 40.9311 39.9488C37.2596 39.9488 34.2832 37.1979 34.2832 33.8045C34.2832 30.4111 37.2596 27.6602 40.9311 27.6602C44.6027 27.6602 47.5791 30.4111 47.5791 33.8045Z" fill="#FED280"/>
<path d="M70.8496 33.8045C70.8496 37.1979 67.8732 39.9488 64.2017 39.9488C60.5301 39.9488 57.5537 37.1979 57.5537 33.8045C57.5537 30.4111 60.5301 27.6602 64.2017 27.6602C67.8732 27.6602 70.8496 30.4111 70.8496 33.8045Z" fill="#8CFEE3" fill-opacity="0.9"/>
<path d="M94.1162 33.8045C94.1162 37.1979 91.1398 39.9488 87.4683 39.9488C83.7967 39.9488 80.8203 37.1979 80.8203 33.8045C80.8203 30.4111 83.7967 27.6602 87.4683 27.6602C91.1398 27.6602 94.1162 30.4111 94.1162 33.8045Z" fill="#FF8DA9" fill-opacity="0.9"/>
<rect x="23.4131" y="71" width="245.538" height="133" rx="13" fill="url(#paint15_linear_5865_837)"/>
<rect x="23.4131" y="219" width="474.852" height="118" rx="13" fill="url(#paint16_linear_5865_837)"/>
<rect x="40.7178" y="81" width="68.145" height="54" rx="6" fill="url(#paint17_linear_5865_837)"/>
<rect x="117.515" y="81" width="135.208" height="54" rx="6" fill="url(#paint18_linear_5865_837)"/>
<rect x="117.515" y="141" width="62.7367" height="54" rx="6" fill="url(#paint19_linear_5865_837)"/>
<rect x="185.663" y="141" width="62.7367" height="54" rx="6" fill="url(#paint20_linear_5865_837)"/>
<rect x="40.7178" y="141" width="68.145" height="8" rx="4" fill="#303262" fill-opacity="0.5"/>
<rect x="40.7178" y="172" width="68.145" height="8" rx="4" fill="#303262" fill-opacity="0.5"/>
<rect x="40.7178" y="156" width="68.145" height="8" rx="4" fill="#303262" fill-opacity="0.5"/>
<rect x="40.7178" y="187" width="68.145" height="8" rx="4" fill="#303262" fill-opacity="0.5"/>
<defs>
<linearGradient id="paint0_linear_5865_837" x1="259.486" y1="0" x2="374.406" y2="528.848" gradientUnits="userSpaceOnUse">
<stop stop-color="white" stop-opacity="0.16"/>
<stop offset="1" stop-color="#C4C4C4" stop-opacity="0"/>
</linearGradient>
<linearGradient id="paint1_linear_5865_837" x1="259.218" y1="1.34022e-05" x2="605.624" y2="270.314" gradientUnits="userSpaceOnUse">
<stop stop-color="white" stop-opacity="0.17"/>
<stop offset="1" stop-opacity="0"/>
</linearGradient>
<linearGradient id="paint2_linear_5865_837" x1="255.34" y1="15.2334" x2="319.063" y2="227.727" gradientUnits="userSpaceOnUse">
<stop stop-color="white" stop-opacity="0.15"/>
<stop offset="1" stop-color="#C4C4C4" stop-opacity="0"/>
</linearGradient>
<linearGradient id="paint3_linear_5865_837" x1="391.72" y1="71" x2="467.721" y2="412.572" gradientUnits="userSpaceOnUse">
<stop stop-color="white" stop-opacity="0.17"/>
<stop offset="1" stop-opacity="0"/>
</linearGradient>
<linearGradient id="paint4_linear_5865_837" x1="378.222" y1="88.9219" x2="386.418" y2="132.574" gradientUnits="userSpaceOnUse">
<stop stop-color="white" stop-opacity="0.56"/>
<stop offset="1" stop-color="#C4C4C4" stop-opacity="0"/>
</linearGradient>
<linearGradient id="paint5_linear_5865_837" x1="329.544" y1="106.842" x2="348.134" y2="142.282" gradientUnits="userSpaceOnUse">
<stop stop-color="#F9C746" stop-opacity="0.52"/>
<stop offset="1" stop-color="#C4C4C4" stop-opacity="0"/>
</linearGradient>
<linearGradient id="paint6_linear_5865_837" x1="376.495" y1="106.842" x2="398.985" y2="127.26" gradientUnits="userSpaceOnUse">
<stop stop-color="#84EBE5" stop-opacity="0.62"/>
<stop offset="1" stop-color="#C4C4C4" stop-opacity="0"/>
</linearGradient>
<linearGradient id="paint7_linear_5865_837" x1="329.544" y1="178.527" x2="348.134" y2="213.968" gradientUnits="userSpaceOnUse">
<stop stop-color="white" stop-opacity="0.56"/>
<stop offset="1" stop-color="#C4C4C4" stop-opacity="0"/>
</linearGradient>
<linearGradient id="paint8_linear_5865_837" x1="376.495" y1="178.527" x2="398.985" y2="198.945" gradientUnits="userSpaceOnUse">
<stop stop-color="#F47D9E"/>
<stop offset="1" stop-color="#C4C4C4" stop-opacity="0"/>
</linearGradient>
<linearGradient id="paint9_linear_5865_837" x1="343.761" y1="142.686" x2="365.248" y2="158.291" gradientUnits="userSpaceOnUse">
<stop stop-color="#F2C87D"/>
<stop offset="1" stop-color="#C4C4C4" stop-opacity="0"/>
</linearGradient>
<linearGradient id="paint10_linear_5865_837" x1="393.301" y1="142.686" x2="410.279" y2="180.191" gradientUnits="userSpaceOnUse">
<stop stop-color="white" stop-opacity="0.62"/>
<stop offset="1" stop-color="#C4C4C4" stop-opacity="0"/>
</linearGradient>
<linearGradient id="paint11_linear_5865_837" x1="309.298" y1="140.893" x2="348.839" y2="146.933" gradientUnits="userSpaceOnUse">
<stop stop-color="#F37D9D"/>
<stop offset="1" stop-color="#C4C4C4" stop-opacity="0"/>
</linearGradient>
<linearGradient id="paint12_linear_5865_837" x1="337.729" y1="124.764" x2="353.396" y2="163.641" gradientUnits="userSpaceOnUse">
<stop stop-color="white" stop-opacity="0.58"/>
<stop offset="1" stop-color="#C4C4C4" stop-opacity="0"/>
</linearGradient>
<linearGradient id="paint13_linear_5865_837" x1="397.607" y1="124.764" x2="419.441" y2="153.175" gradientUnits="userSpaceOnUse">
<stop stop-color="white" stop-opacity="0.45"/>
<stop offset="1" stop-color="#C4C4C4" stop-opacity="0"/>
</linearGradient>
<linearGradient id="paint14_linear_5865_837" x1="337.729" y1="160.607" x2="353.396" y2="199.485" gradientUnits="userSpaceOnUse">
<stop stop-color="#70D1E7"/>
<stop offset="1" stop-color="#C4C4C4" stop-opacity="0"/>
</linearGradient>
<linearGradient id="paint15_linear_5865_837" x1="89.4772" y1="16.7201" x2="152.051" y2="266.755" gradientUnits="userSpaceOnUse">
<stop stop-color="white" stop-opacity="0.31"/>
<stop offset="1" stop-color="white" stop-opacity="0"/>
</linearGradient>
<linearGradient id="paint16_linear_5865_837" x1="89.3948" y1="-59" x2="-22.8556" y2="336.274" gradientUnits="userSpaceOnUse">
<stop stop-color="white" stop-opacity="0.31"/>
<stop offset="1" stop-color="white" stop-opacity="0"/>
</linearGradient>
<linearGradient id="paint17_linear_5865_837" x1="59.0527" y1="58.9615" x2="93.8796" y2="154.087" gradientUnits="userSpaceOnUse">
<stop stop-color="white" stop-opacity="0.31"/>
<stop offset="1" stop-color="white" stop-opacity="0"/>
</linearGradient>
<linearGradient id="paint18_linear_5865_837" x1="153.894" y1="58.9615" x2="173.144" y2="163.285" gradientUnits="userSpaceOnUse">
<stop stop-color="white" stop-opacity="0.31"/>
<stop offset="1" stop-color="white" stop-opacity="0"/>
</linearGradient>
<linearGradient id="paint19_linear_5865_837" x1="134.394" y1="118.962" x2="171.436" y2="212.107" gradientUnits="userSpaceOnUse">
<stop stop-color="white" stop-opacity="0.31"/>
<stop offset="1" stop-color="white" stop-opacity="0"/>
</linearGradient>
<linearGradient id="paint20_linear_5865_837" x1="202.543" y1="118.962" x2="239.585" y2="212.107" gradientUnits="userSpaceOnUse">
<stop stop-color="white" stop-opacity="0.31"/>
<stop offset="1" stop-color="white" stop-opacity="0"/>
</linearGradient>
</defs>
</svg>
