<svg width="194" height="134" viewBox="0 0 194 134" fill="none" xmlns="http://www.w3.org/2000/svg">
<path d="M0 11.2557C0 5.31713 4.8142 0.50293 10.7528 0.50293H182.798C188.736 0.50293 193.551 5.31713 193.551 11.2557V122.368C193.551 128.307 188.736 133.121 182.798 133.121H10.7528C4.8142 133.121 0 128.307 0 122.368V11.2557Z" fill="url(#paint0_linear_5807_841)"/>
<path fill-rule="evenodd" clip-rule="evenodd" d="M182.798 2.29506H10.7528C5.80397 2.29506 1.79213 6.3069 1.79213 11.2557V122.368C1.79213 127.317 5.80397 131.329 10.7528 131.329H182.798C187.747 131.329 191.758 127.317 191.758 122.368V11.2557C191.758 6.30689 187.747 2.29506 182.798 2.29506ZM10.7528 0.50293C4.8142 0.50293 0 5.31713 0 11.2557V122.368C0 128.307 4.8142 133.121 10.7528 133.121H182.798C188.736 133.121 193.551 128.307 193.551 122.368V11.2557C193.551 5.31712 188.736 0.50293 182.798 0.50293H10.7528Z" fill="url(#paint1_linear_5807_841)"/>
<path d="M21.5059 35.4496C21.5059 32.4803 23.913 30.0732 26.8823 30.0732H77.062C80.0313 30.0732 82.4384 32.4803 82.4384 35.4496V92.798C82.4384 95.7673 80.0313 98.1744 77.062 98.1744H26.8823C23.913 98.1744 21.5059 95.7673 21.5059 92.798V35.4496Z" fill="white" fill-opacity="0.17"/>
<path d="M94.0859 35.0016C94.0859 32.2797 96.2924 30.0732 99.0143 30.0732H162.635C165.357 30.0732 167.563 32.2797 167.563 35.0016V35.0016C167.563 37.7235 165.357 39.93 162.635 39.93H99.0143C96.2924 39.93 94.0859 37.7235 94.0859 35.0016V35.0016Z" fill="white" fill-opacity="0.6"/>
<path d="M94.0859 53.819C94.0859 51.0971 96.2924 48.8906 99.0143 48.8906H162.635C165.357 48.8906 167.563 51.0971 167.563 53.819V53.819C167.563 56.5409 165.357 58.7474 162.635 58.7474H99.0143C96.2924 58.7474 94.0859 56.5409 94.0859 53.819V53.819Z" fill="white" fill-opacity="0.26"/>
<path d="M94.0859 85.1808C94.0859 76.0254 101.508 68.6035 110.663 68.6035H111.559C120.715 68.6035 128.136 76.0254 128.136 85.1808V85.1808C128.136 94.3361 120.715 101.758 111.559 101.758H110.663C101.508 101.758 94.0859 94.3361 94.0859 85.1808V85.1808Z" fill="#767799"/>
<path d="M48.195 62.9714C46.5054 60.7674 43.139 60.9137 41.6469 63.256L29.7979 81.8567C28.1017 84.5195 30.0144 88.0058 33.1716 88.0058H70.9104C74.1764 88.0058 76.0658 84.3033 74.1494 81.6586L67.458 72.4248C65.977 70.3809 62.9963 70.2029 61.2825 72.056L61.1577 72.1909C59.4737 74.0117 56.5556 73.8769 55.0466 71.9086L48.195 62.9714Z" fill="white"/>
<path d="M71.479 50.0266C71.479 53.2433 68.8713 55.851 65.6545 55.851C62.4378 55.851 59.8301 53.2433 59.8301 50.0266C59.8301 46.8098 62.4378 44.2021 65.6545 44.2021C68.8713 44.2021 71.479 46.8098 71.479 50.0266Z" fill="#C4C5DC"/>
<path d="M134.41 75.3272C134.41 71.6138 137.421 68.6035 141.136 68.6035H160.472C164.186 68.6035 167.197 71.6138 167.197 75.3272V94.6579C167.197 98.3713 164.186 101.382 160.472 101.382H141.136C137.421 101.382 134.41 98.3713 134.41 94.6579V75.3272Z" fill="#767799"/>
<path fill-rule="evenodd" clip-rule="evenodd" d="M154.065 94.3935H148.007V91.8721H154.065V94.3935Z" fill="white"/>
<path fill-rule="evenodd" clip-rule="evenodd" d="M142.396 77.4287H159.21V81.4849H156.688V79.9501H144.919V81.4849H142.396V77.4287Z" fill="white"/>
<path fill-rule="evenodd" clip-rule="evenodd" d="M149.699 93.2742L149.854 78.8311L152.376 78.8582L152.22 93.3013L149.699 93.2742Z" fill="white"/>
<defs>
<linearGradient id="paint0_linear_5807_841" x1="41.8266" y1="36.1133" x2="278.936" y2="344.827" gradientUnits="userSpaceOnUse">
<stop stop-color="#40416E"/>
<stop offset="1" stop-color="#5A5B8B"/>
</linearGradient>
<linearGradient id="paint1_linear_5807_841" x1="96.7753" y1="0.502932" x2="179.171" y2="337.829" gradientUnits="userSpaceOnUse">
<stop stop-color="white" stop-opacity="0.17"/>
<stop offset="1" stop-opacity="0"/>
</linearGradient>
</defs>
</svg>
