<svg width="480" height="362" viewBox="0 0 480 362" fill="none" xmlns="http://www.w3.org/2000/svg">
<path d="M1 17.0253C1 7.62247 8.62248 0 18.0253 0H462.475C471.877 0 479.5 7.62248 479.5 17.0253V344.09C479.5 353.493 471.877 361.115 462.475 361.115H18.0253C8.62247 361.115 1 353.493 1 344.09V17.0253Z" fill="url(#paint0_linear_5807_843)"/>
<path fill-rule="evenodd" clip-rule="evenodd" d="M462.225 1.79213H17.7753C9.36224 1.79213 2.54213 8.61224 2.54213 17.0253V344.09C2.54213 352.503 9.36224 359.323 17.7753 359.323H462.225C470.638 359.323 477.458 352.503 477.458 344.09V17.0253C477.458 8.61225 470.638 1.79213 462.225 1.79213ZM17.7753 0C8.37248 0 0.75 7.62247 0.75 17.0253V344.09C0.75 353.493 8.37247 361.115 17.7753 361.115H462.225C471.627 361.115 479.25 353.493 479.25 344.09V17.0253C479.25 7.62248 471.627 0 462.225 0H17.7753Z" fill="url(#paint1_linear_5807_843)"/>
<path d="M285.699 281.816C285.699 278.103 288.71 275.093 292.425 275.093H311.761C315.475 275.093 318.486 278.103 318.486 281.816V301.147C318.486 304.861 315.475 307.871 311.761 307.871H292.425C288.71 307.871 285.699 304.861 285.699 301.147V281.816Z" fill="#51CB9C"/>
<path d="M297.263 297.786L291.583 291.468L297.263 285.179H299.974L294.27 291.468L299.974 297.786H297.263Z" fill="white"/>
<path d="M304.186 285.179H306.896L312.6 291.468L306.896 297.786H304.186L309.89 291.468L304.186 285.179Z" fill="white"/>
<path d="M179.066 103.499C179.066 99.7857 182.078 96.7754 185.792 96.7754H205.128C208.842 96.7754 211.853 99.7857 211.853 103.499V122.83C211.853 126.543 208.842 129.553 205.128 129.553H185.792C182.078 129.553 179.066 126.543 179.066 122.83V103.499Z" fill="#1ABCFE"/>
<path fill-rule="evenodd" clip-rule="evenodd" d="M198.349 109.139L195.687 105.066H187.7V122.716H203.673V109.139H198.349ZM201.572 111.241H197.212L194.549 107.168H189.802V120.615H201.572V111.241Z" fill="white"/>
<path d="M346.631 140.237C346.631 136.524 349.642 133.514 353.356 133.514H372.692C376.407 133.514 379.418 136.524 379.418 140.237V159.568C379.418 163.281 376.407 166.292 372.692 166.292H353.356C349.642 166.292 346.631 163.281 346.631 159.568V140.237Z" fill="#FFC04A"/>
<path d="M355.039 149.055C356.399 148.801 357.079 148.102 357.079 146.955C357.079 146.448 357.013 145.582 356.879 144.356C356.746 143.049 356.679 142.103 356.679 141.516C356.679 140.556 356.946 139.823 357.479 139.316C358.026 138.81 358.753 138.557 359.659 138.557H360.82V140.136H359.999C359.479 140.136 359.093 140.256 358.839 140.496C358.586 140.723 358.459 141.103 358.459 141.636C358.459 142.023 358.486 142.503 358.539 143.076C358.593 143.636 358.626 144.016 358.639 144.216C358.773 145.495 358.839 146.428 358.839 147.015C358.839 147.722 358.659 148.315 358.299 148.795C357.953 149.261 357.413 149.575 356.679 149.735V149.775C357.413 149.935 357.953 150.254 358.299 150.734C358.659 151.214 358.839 151.807 358.839 152.514C358.839 153.101 358.773 154.034 358.639 155.314C358.626 155.513 358.593 155.9 358.539 156.473C358.486 157.033 358.459 157.506 358.459 157.893C358.459 158.426 358.586 158.806 358.839 159.033C359.093 159.273 359.479 159.393 359.999 159.393H360.82V160.972H359.659C358.753 160.972 358.026 160.719 357.479 160.213C356.946 159.706 356.679 158.973 356.679 158.013C356.679 157.426 356.746 156.48 356.879 155.174C357.013 153.947 357.079 153.081 357.079 152.574C357.079 151.428 356.399 150.728 355.039 150.474V149.055Z" fill="#1C1E53"/>
<path d="M371.255 150.474C369.895 150.728 369.215 151.428 369.215 152.574C369.215 153.081 369.282 153.947 369.415 155.174C369.548 156.48 369.615 157.426 369.615 158.013C369.615 158.973 369.342 159.706 368.795 160.213C368.262 160.719 367.541 160.972 366.635 160.972H365.475V159.393H366.295C366.815 159.393 367.201 159.273 367.455 159.033C367.708 158.806 367.835 158.426 367.835 157.893C367.835 157.506 367.808 157.033 367.755 156.473C367.701 155.9 367.668 155.513 367.655 155.314C367.521 154.034 367.455 153.101 367.455 152.514C367.455 151.807 367.628 151.214 367.975 150.734C368.335 150.254 368.882 149.935 369.615 149.775V149.735C368.882 149.575 368.335 149.261 367.975 148.795C367.628 148.315 367.455 147.722 367.455 147.015C367.455 146.429 367.521 145.495 367.655 144.216C367.668 144.016 367.701 143.636 367.755 143.076C367.808 142.503 367.835 142.023 367.835 141.636C367.835 141.103 367.708 140.723 367.455 140.496C367.201 140.256 366.815 140.136 366.295 140.136H365.475V138.557H366.635C367.541 138.557 368.262 138.81 368.795 139.316C369.342 139.823 369.615 140.556 369.615 141.516C369.615 142.103 369.548 143.049 369.415 144.356C369.282 145.582 369.215 146.448 369.215 146.955C369.215 148.102 369.895 148.801 371.255 149.055V150.474Z" fill="#1C1E53"/>
<path d="M11.5039 33.6028C11.5039 23.4576 19.7282 15.2334 29.8733 15.2334H442.96C453.105 15.2334 461.33 23.4576 461.33 33.6028C461.33 43.7479 453.105 51.9722 442.96 51.9722H29.8733C19.7281 51.9722 11.5039 43.7479 11.5039 33.6028Z" fill="url(#paint2_linear_5807_843)"/>
<path d="M44.3428 33.8045C44.3428 37.1979 41.5912 39.9488 38.1968 39.9488C34.8024 39.9488 32.0508 37.1979 32.0508 33.8045C32.0508 30.4111 34.8024 27.6602 38.1968 27.6602C41.5912 27.6602 44.3428 30.4111 44.3428 33.8045Z" fill="#FED280"/>
<path d="M65.8545 33.8045C65.8545 37.1979 63.1029 39.9488 59.7085 39.9488C56.3142 39.9488 53.5625 37.1979 53.5625 33.8045C53.5625 30.4111 56.3142 27.6602 59.7085 27.6602C63.1029 27.6602 65.8545 30.4111 65.8545 33.8045Z" fill="#8CFEE3" fill-opacity="0.9"/>
<path d="M87.3682 33.8045C87.3682 37.1979 84.6165 39.9488 81.2222 39.9488C77.8278 39.9488 75.0762 37.1979 75.0762 33.8045C75.0762 30.4111 77.8278 27.6602 81.2222 27.6602C84.6165 27.6602 87.3682 30.4111 87.3682 33.8045Z" fill="#FF8DA9" fill-opacity="0.9"/>
<path fill-rule="evenodd" clip-rule="evenodd" d="M113.43 153.228C113.43 152.609 113.931 152.107 114.55 152.107H248.08V178.486C248.08 179.105 247.578 179.606 246.96 179.606C246.341 179.606 245.84 179.105 245.84 178.486V154.348H114.55C113.931 154.348 113.43 153.846 113.43 153.228Z" fill="url(#paint3_linear_5807_843)"/>
<path fill-rule="evenodd" clip-rule="evenodd" d="M388.075 255.379C388.075 255.998 387.574 256.499 386.955 256.499L246.256 256.499L246.256 231.121C246.256 230.502 246.758 230 247.376 230C247.995 230 248.497 230.502 248.497 231.121L248.497 254.259L386.955 254.259C387.574 254.259 388.075 254.76 388.075 255.379Z" fill="url(#paint4_linear_5807_843)"/>
<g filter="url(#filter0_d_5807_843)">
<path fill-rule="evenodd" clip-rule="evenodd" d="M245.056 199.554C245.05 199.771 245.089 199.875 245.287 199.875H250.06C250.924 199.939 251.697 200.155 252.351 200.575C252.805 200.866 253.137 201.213 253.387 201.597C253.83 202.278 254.081 203.261 254.217 204.055C254.275 204.398 254.302 204.719 254.24 204.867C254.21 204.938 254.166 204.985 254.107 205.007C253.779 205.132 253.432 204.704 253.247 204.499C252.367 203.524 251.088 203.121 249.579 203.045H245.216C245.06 203.071 245.004 203.18 245.02 203.349V204.512C245.011 204.899 244.805 205.031 244.397 204.9L240.64 202.108L240.27 201.834L240.176 201.764C239.874 201.506 239.998 201.272 240.269 201.07L240.556 200.856L244.156 198.173C244.595 197.845 245.056 197.758 245.056 198.464V199.554ZM249.236 211.427C249.242 211.211 249.203 211.107 249.005 211.107H244.232C243.368 211.043 242.595 210.827 241.941 210.407C241.484 210.113 241.151 209.765 240.901 209.378C240.448 208.678 240.153 207.539 240.044 206.721C240.01 206.46 240.002 206.233 240.052 206.114C240.082 206.044 240.126 205.997 240.185 205.974C240.513 205.85 240.86 206.278 241.045 206.482C241.925 207.457 243.205 207.861 244.713 207.936H249.076C249.232 207.911 249.288 207.801 249.272 207.633V206.469C249.281 206.082 249.487 205.951 249.895 206.081L253.652 208.873L254.022 209.148L254.116 209.218C254.418 209.475 254.294 209.709 254.023 209.912L253.736 210.125L250.137 212.809C249.697 213.136 249.237 213.224 249.237 212.518L249.236 211.427Z" fill="#88F1DB"/>
</g>
<circle cx="247" cy="205" r="19" stroke="white" stroke-width="2"/>
<path d="M169.211 153.227C169.211 158.176 165.2 162.188 160.251 162.188C155.302 162.188 151.29 158.176 151.29 153.227C151.29 148.278 155.302 144.267 160.251 144.267C165.2 144.267 169.211 148.278 169.211 153.227Z" fill="#383A68"/>
<path fill-rule="evenodd" clip-rule="evenodd" d="M160.251 160.396C164.21 160.396 167.419 157.186 167.419 153.227C167.419 149.268 164.21 146.059 160.251 146.059C156.292 146.059 153.082 149.268 153.082 153.227C153.082 157.186 156.292 160.396 160.251 160.396ZM160.251 162.188C165.2 162.188 169.211 158.176 169.211 153.227C169.211 148.278 165.2 144.267 160.251 144.267C155.302 144.267 151.29 148.278 151.29 153.227C151.29 158.176 155.302 162.188 160.251 162.188Z" fill="#63648A"/>
<path d="M364.552 255.38C364.552 260.328 360.54 264.34 355.592 264.34C350.643 264.34 346.631 260.328 346.631 255.38C346.631 250.431 350.643 246.419 355.592 246.419C360.54 246.419 364.552 250.431 364.552 255.38Z" fill="#383A68"/>
<path fill-rule="evenodd" clip-rule="evenodd" d="M355.592 262.548C359.551 262.548 362.76 259.339 362.76 255.38C362.76 251.421 359.551 248.211 355.592 248.211C351.632 248.211 348.423 251.421 348.423 255.38C348.423 259.339 351.632 262.548 355.592 262.548ZM355.592 264.34C360.54 264.34 364.552 260.328 364.552 255.38C364.552 250.431 360.54 246.419 355.592 246.419C350.643 246.419 346.631 250.431 346.631 255.38C346.631 260.328 350.643 264.34 355.592 264.34Z" fill="#63648A"/>
<defs>
<filter id="filter0_d_5807_843" x="226" y="187.927" width="42.292" height="43.1279" filterUnits="userSpaceOnUse" color-interpolation-filters="sRGB">
<feFlood flood-opacity="0" result="BackgroundImageFix"/>
<feColorMatrix in="SourceAlpha" type="matrix" values="0 0 0 0 0 0 0 0 0 0 0 0 0 0 0 0 0 0 127 0" result="hardAlpha"/>
<feOffset dy="4"/>
<feGaussianBlur stdDeviation="7"/>
<feComposite in2="hardAlpha" operator="out"/>
<feColorMatrix type="matrix" values="0 0 0 0 0.533333 0 0 0 0 0.945098 0 0 0 0 0.858824 0 0 0 1 0"/>
<feBlend mode="normal" in2="BackgroundImageFix" result="effect1_dropShadow_5807_843"/>
<feBlend mode="normal" in="SourceGraphic" in2="effect1_dropShadow_5807_843" result="shape"/>
</filter>
<linearGradient id="paint0_linear_5807_843" x1="240.25" y1="0" x2="363.61" y2="524.825" gradientUnits="userSpaceOnUse">
<stop stop-color="white" stop-opacity="0.16"/>
<stop offset="1" stop-color="#C4C4C4" stop-opacity="0"/>
</linearGradient>
<linearGradient id="paint1_linear_5807_843" x1="240" y1="1.34022e-05" x2="578.888" y2="244.481" gradientUnits="userSpaceOnUse">
<stop stop-color="white" stop-opacity="0.17"/>
<stop offset="1" stop-opacity="0"/>
</linearGradient>
<linearGradient id="paint2_linear_5807_843" x1="236.417" y1="15.2334" x2="304.39" y2="224.788" gradientUnits="userSpaceOnUse">
<stop stop-color="white" stop-opacity="0.15"/>
<stop offset="1" stop-color="#C4C4C4" stop-opacity="0"/>
</linearGradient>
<linearGradient id="paint3_linear_5807_843" x1="235.831" y1="147.041" x2="56.1168" y2="201.28" gradientUnits="userSpaceOnUse">
<stop stop-color="#767799"/>
<stop offset="1" stop-color="#767799" stop-opacity="0"/>
</linearGradient>
<linearGradient id="paint4_linear_5807_843" x1="259.205" y1="261.565" x2="446.789" y2="201.931" gradientUnits="userSpaceOnUse">
<stop stop-color="#767799"/>
<stop offset="1" stop-color="#767799" stop-opacity="0"/>
</linearGradient>
</defs>
</svg>
