<svg width="173" height="133" viewBox="0 0 173 133" fill="none" xmlns="http://www.w3.org/2000/svg">
<path d="M0.955078 10.8231C0.955078 4.88451 5.76927 0.0703125 11.7079 0.0703125H162.247C168.186 0.0703125 173 4.88451 173 10.8231V121.935C173 127.874 168.186 132.688 162.247 132.688H11.7079C5.76927 132.688 0.955078 127.874 0.955078 121.935V10.8231Z" fill="url(#paint0_linear_5807_842)"/>
<path fill-rule="evenodd" clip-rule="evenodd" d="M162.247 1.86245H11.7079C6.75904 1.86245 2.74721 5.87428 2.74721 10.8231V121.935C2.74721 126.884 6.75904 130.896 11.7079 130.896H162.247C167.196 130.896 171.208 126.884 171.208 121.935V10.8231C171.208 5.87428 167.196 1.86245 162.247 1.86245ZM11.7079 0.0703125C5.76927 0.0703125 0.955078 4.88451 0.955078 10.8231V121.935C0.955078 127.874 5.76927 132.688 11.7079 132.688H162.247C168.186 132.688 173 127.874 173 121.935V10.8231C173 4.88451 168.186 0.0703125 162.247 0.0703125H11.7079Z" fill="url(#paint1_linear_5807_842)"/>
<path d="M16.8848 21.5755C16.8848 19.5959 18.4895 17.9912 20.469 17.9912H153.485C155.465 17.9912 157.07 19.5959 157.07 21.5755C157.07 23.555 155.465 25.1597 153.485 25.1597H20.469C18.4895 25.1597 16.8848 23.555 16.8848 21.5755Z" fill="url(#paint2_linear_5807_842)"/>
<path d="M16.8848 39.4974C16.8848 37.5178 18.4895 35.9131 20.469 35.9131H63.4803C65.4598 35.9131 67.0645 37.5178 67.0645 39.4974C67.0645 41.4769 65.4598 43.0816 63.4803 43.0816H20.469C18.4895 43.0816 16.8848 41.4769 16.8848 39.4974Z" fill="url(#paint3_linear_5807_842)"/>
<path d="M73.4365 39.4974C73.4365 37.5178 75.0413 35.9131 77.0208 35.9131H93.7474C95.7269 35.9131 97.3316 37.5178 97.3316 39.4974C97.3316 41.4769 95.7269 43.0816 93.7474 43.0816H77.0208C75.0413 43.0816 73.4365 41.4769 73.4365 39.4974Z" fill="url(#paint4_linear_5807_842)"/>
<path d="M16.8848 111.183C16.8848 109.203 18.4895 107.599 20.469 107.599H63.4803C65.4598 107.599 67.0645 109.203 67.0645 111.183C67.0645 113.162 65.4598 114.767 63.4803 114.767H20.469C18.4895 114.767 16.8848 113.162 16.8848 111.183Z" fill="url(#paint5_linear_5807_842)"/>
<path d="M73.4365 111.183C73.4365 109.203 75.0413 107.599 77.0208 107.599H93.7474C95.7269 107.599 97.3316 109.203 97.3316 111.183C97.3316 113.162 95.7269 114.767 93.7474 114.767H77.0208C75.0413 114.767 73.4365 113.162 73.4365 111.183Z" fill="url(#paint6_linear_5807_842)"/>
<path d="M45.5596 75.3401C45.5596 73.3606 47.1643 71.7559 49.1438 71.7559H61.0914C63.0709 71.7559 64.6757 73.3606 64.6757 75.3401C64.6757 77.3197 63.0709 78.9244 61.0914 78.9244H49.1438C47.1643 78.9244 45.5596 77.3197 45.5596 75.3401Z" fill="url(#paint7_linear_5807_842)"/>
<path d="M71.8447 75.3401C71.8447 73.3606 73.4495 71.7559 75.429 71.7559H126.405C128.385 71.7559 129.99 73.3606 129.99 75.3401C129.99 77.3197 128.385 78.9244 126.405 78.9244H75.429C73.4495 78.9244 71.8447 77.3197 71.8447 75.3401Z" fill="url(#paint8_linear_5807_842)"/>
<path d="M16.8848 75.3401C16.8848 73.3606 18.4895 71.7559 20.469 71.7559H37.1956C39.1752 71.7559 40.7799 73.3606 40.7799 75.3401C40.7799 77.3197 39.1752 78.9244 37.1956 78.9244H20.469C18.4895 78.9244 16.8848 77.3197 16.8848 75.3401Z" fill="url(#paint9_linear_5807_842)"/>
<path d="M16.8848 57.4183C16.8848 55.4387 18.4895 53.834 20.469 53.834H78.6138C80.5934 53.834 82.1981 55.4387 82.1981 57.4183C82.1981 59.3978 80.5934 61.0025 78.6138 61.0025H20.469C18.4895 61.0025 16.8848 59.3978 16.8848 57.4183Z" fill="url(#paint10_linear_5807_842)"/>
<path d="M87.7744 57.4183C87.7744 55.4387 89.3791 53.834 91.3587 53.834H118.44C120.419 53.834 122.024 55.4387 122.024 57.4183C122.024 59.3978 120.419 61.0025 118.44 61.0025H91.3587C89.3792 61.0025 87.7744 59.3978 87.7744 57.4183Z" fill="url(#paint11_linear_5807_842)"/>
<path d="M16.8848 93.261C16.8848 91.2815 18.4895 89.6768 20.469 89.6768H78.6138C80.5934 89.6768 82.1981 91.2815 82.1981 93.261C82.1981 95.2406 80.5934 96.8453 78.6138 96.8453H20.469C18.4895 96.8453 16.8848 95.2406 16.8848 93.261Z" fill="url(#paint12_linear_5807_842)"/>
<defs>
<linearGradient id="paint0_linear_5807_842" x1="332.652" y1="346.76" x2="-138.714" y2="-81.1734" gradientUnits="userSpaceOnUse">
<stop stop-color="#40416E"/>
<stop offset="1" stop-color="#5A5B8B"/>
</linearGradient>
<linearGradient id="paint1_linear_5807_842" x1="86.9775" y1="0.070315" x2="178.306" y2="332.426" gradientUnits="userSpaceOnUse">
<stop stop-color="white" stop-opacity="0.17"/>
<stop offset="1" stop-opacity="0"/>
</linearGradient>
<linearGradient id="paint2_linear_5807_842" x1="86.9772" y1="17.9912" x2="95.7914" y2="61.3919" gradientUnits="userSpaceOnUse">
<stop stop-color="white" stop-opacity="0.56"/>
<stop offset="1" stop-color="#C4C4C4" stop-opacity="0"/>
</linearGradient>
<linearGradient id="paint3_linear_5807_842" x1="41.9747" y1="35.9131" x2="61.3707" y2="70.0993" gradientUnits="userSpaceOnUse">
<stop stop-color="#F9C746" stop-opacity="0.52"/>
<stop offset="1" stop-color="#C4C4C4" stop-opacity="0"/>
</linearGradient>
<linearGradient id="paint4_linear_5807_842" x1="85.3841" y1="35.9131" x2="107.637" y2="54.5902" gradientUnits="userSpaceOnUse">
<stop stop-color="#84EBE5" stop-opacity="0.62"/>
<stop offset="1" stop-color="#C4C4C4" stop-opacity="0"/>
</linearGradient>
<linearGradient id="paint5_linear_5807_842" x1="41.9747" y1="107.599" x2="61.3707" y2="141.785" gradientUnits="userSpaceOnUse">
<stop stop-color="white" stop-opacity="0.56"/>
<stop offset="1" stop-color="#C4C4C4" stop-opacity="0"/>
</linearGradient>
<linearGradient id="paint6_linear_5807_842" x1="85.3841" y1="107.599" x2="107.637" y2="126.276" gradientUnits="userSpaceOnUse">
<stop stop-color="#F47D9E"/>
<stop offset="1" stop-color="#C4C4C4" stop-opacity="0"/>
</linearGradient>
<linearGradient id="paint7_linear_5807_842" x1="55.1176" y1="71.7559" x2="76.0318" y2="85.7986" gradientUnits="userSpaceOnUse">
<stop stop-color="#F2C87D"/>
<stop offset="1" stop-color="#C4C4C4" stop-opacity="0"/>
</linearGradient>
<linearGradient id="paint8_linear_5807_842" x1="100.917" y1="71.7559" x2="118.765" y2="108.207" gradientUnits="userSpaceOnUse">
<stop stop-color="white" stop-opacity="0.62"/>
<stop offset="1" stop-color="#C4C4C4" stop-opacity="0"/>
</linearGradient>
<linearGradient id="paint9_linear_5807_842" x1="23.2568" y1="69.9637" x2="59.9342" y2="75.1427" gradientUnits="userSpaceOnUse">
<stop stop-color="#F37D9D"/>
<stop offset="1" stop-color="#C4C4C4" stop-opacity="0"/>
</linearGradient>
<linearGradient id="paint10_linear_5807_842" x1="49.5414" y1="53.834" x2="66.0949" y2="91.8092" gradientUnits="userSpaceOnUse">
<stop stop-color="white" stop-opacity="0.58"/>
<stop offset="1" stop-color="#C4C4C4" stop-opacity="0"/>
</linearGradient>
<linearGradient id="paint11_linear_5807_842" x1="104.899" y1="53.834" x2="127.114" y2="80.5586" gradientUnits="userSpaceOnUse">
<stop stop-color="white" stop-opacity="0.45"/>
<stop offset="1" stop-color="#C4C4C4" stop-opacity="0"/>
</linearGradient>
<linearGradient id="paint12_linear_5807_842" x1="49.5414" y1="89.6768" x2="66.0949" y2="127.652" gradientUnits="userSpaceOnUse">
<stop stop-color="#70D1E7"/>
<stop offset="1" stop-color="#C4C4C4" stop-opacity="0"/>
</linearGradient>
</defs>
</svg>
